<mxfile host="app.diagrams.net" modified="2024-04-27T12:56:59.179Z" agent="Mozilla/5.0 (Macintosh; Intel Mac OS X 10_15_7) AppleWebKit/537.36 (KHTML, like Gecko) Chrome/124.0.0.0 Safari/537.36" etag="__LY7n23ukX33jubIqH9" version="24.2.8" type="github">
  <diagram name="PÃ¡gina-1" id="Mf1vdCVvzEqVVEpjBD80">
    <mxGraphModel dx="708" dy="448" grid="1" gridSize="10" guides="1" tooltips="1" connect="1" arrows="1" fold="1" page="1" pageScale="1" pageWidth="827" pageHeight="1169" math="0" shadow="0">
      <root>
        <mxCell id="0" />
        <mxCell id="1" parent="0" />
        <mxCell id="Goxi84qDYm24SVxgxPYc-1" value="CRUCERO" style="whiteSpace=wrap;html=1;align=center;fillColor=#dae8fc;strokeColor=#6c8ebf;" vertex="1" parent="1">
          <mxGeometry x="120" y="160" width="100" height="40" as="geometry" />
        </mxCell>
        <mxCell id="Goxi84qDYm24SVxgxPYc-2" value="Tiene" style="shape=rhombus;perimeter=rhombusPerimeter;whiteSpace=wrap;html=1;align=center;fillColor=#ffe6cc;strokeColor=#d79b00;" vertex="1" parent="1">
          <mxGeometry x="313.5" y="155" width="100" height="50" as="geometry" />
        </mxCell>
        <mxCell id="Goxi84qDYm24SVxgxPYc-3" value="TRIPULANTE" style="whiteSpace=wrap;html=1;align=center;fillColor=#dae8fc;strokeColor=#6c8ebf;" vertex="1" parent="1">
          <mxGeometry x="500" y="160" width="100" height="40" as="geometry" />
        </mxCell>
        <mxCell id="Goxi84qDYm24SVxgxPYc-4" value="" style="endArrow=none;html=1;rounded=0;" edge="1" parent="1" source="Goxi84qDYm24SVxgxPYc-1" target="Goxi84qDYm24SVxgxPYc-2">
          <mxGeometry relative="1" as="geometry">
            <mxPoint x="330" y="260" as="sourcePoint" />
            <mxPoint x="490" y="260" as="targetPoint" />
          </mxGeometry>
        </mxCell>
        <mxCell id="Goxi84qDYm24SVxgxPYc-5" value="" style="endArrow=none;html=1;rounded=0;" edge="1" parent="1" source="Goxi84qDYm24SVxgxPYc-2" target="Goxi84qDYm24SVxgxPYc-3">
          <mxGeometry relative="1" as="geometry">
            <mxPoint x="340" y="300" as="sourcePoint" />
            <mxPoint x="500" y="300" as="targetPoint" />
          </mxGeometry>
        </mxCell>
      </root>
    </mxGraphModel>
  </diagram>
</mxfile>
